<svg xmlns="http://www.w3.org/2000/svg" width="116.197" height="36.829" viewBox="0 0 116.197 36.829">
  <g id="_007-logo" data-name="007-logo" transform="translate(-0.639)">
    <path id="Path_11" data-name="Path 11" d="M71.334,77.2l3.659-5.209H85.756c-.753,2.518-4.823,7.3-12.14,14.314-6.846,6.78-11.108,12.356-12.83,16.79h8.094L70,101.027l.086-.065V100.9l.108-.237A61.233,61.233,0,0,1,81.559,87.142c9.235-8.89,13.884-15.456,13.9-19.782h-22.9L66.879,77.2h4.456Zm53.641-4.5c2.153-1.765,3.293-3.487,3.4-5.145H97.616a21.317,21.317,0,0,1-2.884,6.867H110.9A7.105,7.105,0,0,1,111.781,73c.214-.3.667-.388,1.356-.3h11.838Zm-20.729,5.92,3.7-.688,1.787-1.959H93.829q-5.2,5.554-.8,7.771c.3.022.387-.215.258-.775a3.081,3.081,0,0,1,.3-2.3,3.65,3.65,0,0,1,1.1-1.464h6.135l-6.135,7.039A4.127,4.127,0,0,1,92,86.754h-7.06L82.958,88.5h8.824a5.6,5.6,0,0,0,4.306-1.227l6.048-7.017c.775-1.055,1.464-1.615,2.11-1.637Zm-38.53-1.528c.689-5.166-.581-8.309-3.81-9.471q-5.683-2.2-12.873,4.542a41.882,41.882,0,0,0-4.864,5.619A24.8,24.8,0,0,0,41.5,81.933l-1.292,2.648a36.225,36.225,0,0,0-2.325,6.35c-1.765,6.415-.817,10.483,2.82,12.162,3.681,1.7,7.965.409,12.83-3.918a40.921,40.921,0,0,0,7.3-8.74l1.313-2.26a33.539,33.539,0,0,0,3.509-10.784ZM47.763,84.128a64.306,64.306,0,0,1,5.015-7.985c3.186-4.5,5.575-6.415,7.168-5.856q3.616,1.356-5.317,16.963a90.3,90.3,0,0,1-5.468,7.942c-3.293,4.134-5.553,5.92-6.8,5.274-1.292-.689-.926-3.357,1.12-8.008Zm-6.909-7.146c.71-5.144-.582-8.288-3.788-9.471-3.811-1.442-8.094.108-12.85,4.585a40.431,40.431,0,0,0-4.887,5.6,24.042,24.042,0,0,0-2.669,4.176l-1.313,2.626a40.421,40.421,0,0,0-2.324,6.329q-2.616,9.653,2.884,12.182c3.638,1.7,7.921.388,12.765-3.916a41.647,41.647,0,0,0,7.34-8.74L37.3,88.091a34.323,34.323,0,0,0,3.508-10.763l.043-.346Zm-17.931,7.06a65.46,65.46,0,0,1,4.994-7.964q4.811-6.717,7.189-5.877,3.616,1.356-5.317,16.941a78.914,78.914,0,0,1-5.446,7.965q-4.94,6.232-6.824,5.274c-1.292-.689-.926-3.38,1.119-8.008Z" transform="translate(-11.541 -66.988)" fill="#929292" fill-rule="evenodd"/>
  </g>
</svg>
