<svg xmlns="http://www.w3.org/2000/svg" width="1921.309" height="320.884" viewBox="0 0 1921.309 320.884">
  <path id="blood" d="M10023.063,563.212s83.52,132.638,134.735,121.993,63-97.719,116.516-87.046,30.771,205.561,68.715,203.106-4.69-106.91,51.107-138.38,89.277,78.118,138.38,64.726,98.206-120.971,136.148-102.892-.038,145.283,42.369,138.81,15.66-35.918,58.067-78.324,111.6-151.772,209.8-100.437,90.912,127.064,148.594,129.452,79.895-100.872,79.895-100.872,45.649-121.66,147.221,38.888c138.38,218.73,95.851-33.988,158.345-54.076s124.368,49.1,133.3,129.452,60.263,100.66,62.494-13.392,105.51-227.842,125.233-131.048,37.294,39.555,68.22,79.519,42.171-98.829,42.171-98.829V480.4l-1921.309,6.759Z" transform="translate(-10023.063 -480.405)" fill="#710000"/>
</svg>
