<svg xmlns="http://www.w3.org/2000/svg" width="1921.309" height="1835.208" viewBox="0 0 1921.309 1835.208">
  <path id="Union_1" data-name="Union 1" d="M251.251,1632.08c-53.52-10.673-65.3,76.4-116.516,87.045S0,1597.133,0,1597.133v-76.049l.572,0V0h1920V1514.327l.737,0v83.457s-11.245,138.793-42.17,98.83-48.5,17.276-68.22-79.519-123,17-125.233,131.047-53.566,93.741-62.494,13.392-70.8-149.54-133.3-129.452-19.965,272.805-158.344,54.076c-101.571-160.547-147.221-38.887-147.221-38.887s-22.213,103.261-79.895,100.872-50.388-78.118-148.594-129.452-167.4,58.03-209.8,100.437-15.66,71.852-58.067,78.324-4.427-120.731-42.369-138.81-87.046,89.5-136.148,102.892c-22.871,6.237-42.351-14.2-62.277-34.646-22.855-23.446-46.293-46.893-76.1-30.08-55.8,31.47-13.164,135.925-51.107,138.38-.239.015-.472.023-.705.023C282.308,1835.2,304.435,1642.686,251.251,1632.08Z" fill="#710000"/>
</svg>
