<svg xmlns="http://www.w3.org/2000/svg" width="114.836" height="209.18" viewBox="0 0 114.836 209.18">
  <g id="shooting-target" transform="translate(0)">
    <g id="Group_1" data-name="Group 1" transform="translate(0 0)">
      <path id="Path_1" data-name="Path 1" d="M269.087,61.492a6.385,6.385,0,1,0-6.381-6.385A6.39,6.39,0,0,0,269.087,61.492Zm0-8.744a2.363,2.363,0,1,1-2.363,2.363A2.361,2.361,0,0,1,269.087,52.748Z" transform="translate(-211.665 -30.507)" fill="#fbfbfb"/>
      <path id="Path_2" data-name="Path 2" d="M259.974,57.833a11.822,11.822,0,1,0-11.822-11.822A11.836,11.836,0,0,0,259.974,57.833Zm0-21.046a9.223,9.223,0,1,1-9.223,9.223A9.232,9.232,0,0,1,259.974,36.787Z" transform="translate(-202.552 -21.407)" fill="#fbfbfb"/>
      <path id="Path_3" data-name="Path 3" d="M250.855,311.691a17.269,17.269,0,1,0,17.267,17.271A17.289,17.289,0,0,0,250.855,311.691Zm0,23.659a6.394,6.394,0,1,1,6.392-6.392A6.394,6.394,0,0,1,250.855,335.35Z" transform="translate(-193.433 -195.166)" fill="#fbfbfb"/>
      <path id="Path_4" data-name="Path 4" d="M240.928,172.709l-2.917-33.164a177.547,177.547,0,0,1,.558-31.127l1.805-14.586c1.065-8.58-4.626-18.036-12.695-21.128l-15.115-5.777c-8.072-3.085-14.621-8.412-14.621-11.89s3.278-12.527,4.794-20.928a86.461,86.461,0,0,0,1.294-15.379c0-7.207-2.538-11.708-5.831-14.518-6.567-5.616-22.64-5.616-29.207,0-3.292,2.81-5.831,7.311-5.831,14.518a86.452,86.452,0,0,0,1.294,15.379c1.516,8.4,4.787,17.442,4.787,20.928s-6.542,8.805-14.615,11.89L139.514,72.7c-8.069,3.089-13.763,12.548-12.695,21.128l1.805,14.586a177.511,177.511,0,0,1,.558,31.127l-2.917,33.164c-.758,8.612,3.507,20.763,10.964,25.139,9.549,5.6,24.813,11.553,46.37,11.325,21.557.228,36.822-5.72,46.363-11.322C237.421,193.473,241.686,181.321,240.928,172.709ZM168.936,24.6A14.664,14.664,0,1,1,183.6,39.264,14.682,14.682,0,0,1,168.936,24.6ZM183.6,173.442a39.652,39.652,0,1,1,39.653-39.65A39.7,39.7,0,0,1,183.6,173.442Z" transform="translate(-126.178 0)" fill="#fbfbfb"/>
      <path id="Path_5" data-name="Path 5" d="M226.216,272.342a31.978,31.978,0,1,0,31.978,31.978A32.013,32.013,0,0,0,226.216,272.342Zm0,56.92a24.942,24.942,0,1,1,24.942-24.942A24.971,24.971,0,0,1,226.216,329.262Z" transform="translate(-168.794 -170.527)" fill="#fbfbfb"/>
    </g>
  </g>
</svg>
